# xmcd CD database file
#
# Track frame offsets:
#	150
#	25072
#	49882
#	70375
#	94440
#	120337
#	152922
#	189187
#	212042
#
# Disc length: 3536 seconds
#
# Revision: 0
# Processed by: cddbd v1.5.2PL0 Copyright (c) Steve Scherf et al.
# Submitted via: CDex 1.51
#
DISCID=780dce09
DTITLE=Issa - L'art du Bouzouk
DYEAR=1999
DGENRE=World
TTITLE0=chahnaze en 5
TTITLE1=maqam ajam
TTITLE2=maqam kurd
TTITLE3=qadi sero
TTITLE4=maqam nahawend
TTITLE5=maqam husseyni
TTITLE6=voyage a travers les maqams
TTITLE7=maqam hidjaz
TTITLE8=retour aux sources
EXTD=YEAR: 1999
EXTT0=
EXTT1=
EXTT2=
EXTT3=
EXTT4=
EXTT5=
EXTT6=
EXTT7=
EXTT8=
PLAYORDER=
